<svg width="65" height="65" viewBox="0 0 65 65" fill="none" xmlns="http://www.w3.org/2000/svg">
<rect width="65" height="65" rx="22" fill="#FCF3DF"/>
<path fill-rule="evenodd" clip-rule="evenodd" d="M37.59 25.06C36.89 24.03 36.09 23.07 35.19 22.21C34.84 21.87 34.25 22.19 34.35 22.67C34.54 23.61 34.74 24.85 34.74 25.96C34.74 28.02 33.39 29.69 31.33 29.69C29.79 29.69 28.53 28.76 27.98 27.43C27.88 27.23 27.84 27.11 27.78 26.89C27.67 26.47 27.12 26.34 26.88 26.71C26.7 26.98 26.53 27.25 26.37 27.54C25.18 29.58 24.5 31.96 24.5 34.5C24.5 38.92 28.08 42.5 32.5 42.5C36.92 42.5 40.5 38.92 40.5 34.5C40.5 31.01 39.42 27.77 37.59 25.06ZM32.21 39.5C30.43 39.5 28.99 38.1 28.99 36.36C28.99 34.74 30.04 33.6 31.8 33.24C33.27 32.94 34.78 32.31 35.83 31.32C36.11 31.06 36.57 31.18 36.65 31.55C36.88 32.57 37 33.63 37 34.7C37.01 37.35 34.86 39.5 32.21 39.5Z" fill="#F9C45C"/>
</svg>
