<svg width="65" height="65" viewBox="0 0 65 65" fill="none" xmlns="http://www.w3.org/2000/svg">
<rect width="65" height="65" rx="22" fill="#DDFBEE"/>
<path fill-rule="evenodd" clip-rule="evenodd" d="M40.5 24.5H24.5C23.4 24.5 22.51 25.4 22.51 26.5L22.5 38.5C22.5 39.6 23.4 40.5 24.5 40.5H40.5C41.6 40.5 42.5 39.6 42.5 38.5V26.5C42.5 25.4 41.6 24.5 40.5 24.5ZM40.1 28.75L33.03 33.17C32.71 33.37 32.29 33.37 31.97 33.17L24.9 28.75C24.65 28.59 24.5 28.32 24.5 28.03C24.5 27.36 25.23 26.96 25.8 27.31L32.5 31.5L39.2 27.31C39.77 26.96 40.5 27.36 40.5 28.03C40.5 28.32 40.35 28.59 40.1 28.75Z" fill="#6AC75A"/>
</svg>
