<svg width="65" height="65" viewBox="0 0 65 65" fill="none" xmlns="http://www.w3.org/2000/svg">
<rect width="65" height="65" rx="22" fill="#EDE6FE"/>
<path fill-rule="evenodd" clip-rule="evenodd" d="M42.5 29.5H37.71L33.32 22.93C32.92 22.34 32.05 22.34 31.66 22.93L27.27 29.5H22.5C21.95 29.5 21.5 29.95 21.5 30.5C21.5 30.59 21.51 30.68 21.54 30.77L24.08 40.04C24.31 40.88 25.08 41.5 26 41.5H39C39.92 41.5 40.69 40.88 40.93 40.04L43.47 30.77L43.5 30.5C43.5 29.95 43.05 29.5 42.5 29.5ZM32.49 25.29L35.3 29.5H29.68L32.49 25.29ZM32.5 37.5C31.4 37.5 30.5 36.6 30.5 35.5C30.5 34.4 31.4 33.5 32.5 33.5C33.6 33.5 34.5 34.4 34.5 35.5C34.5 36.6 33.6 37.5 32.5 37.5Z" fill="#783BFF"/>
</svg>
