<svg width="8" height="56" viewBox="0 0 8 56" fill="none" xmlns="http://www.w3.org/2000/svg">
<path fill-rule="evenodd" clip-rule="evenodd" d="M0 52C0 54.2091 1.79086 56 4 56C6.20914 56 8 54.2091 8 52C8 49.7909 6.20914 48 4 48C1.79086 48 0 49.7909 0 52Z" fill="#E1E4EB"/>
<path fill-rule="evenodd" clip-rule="evenodd" d="M0 36C0 38.2091 1.79086 40 4 40C6.20914 40 8 38.2091 8 36C8 33.7909 6.20914 32 4 32C1.79086 32 0 33.7909 0 36Z" fill="#E1E4EB"/>
<path fill-rule="evenodd" clip-rule="evenodd" d="M0 20C0 22.2091 1.79086 24 4 24C6.20914 24 8 22.2091 8 20C8 17.7909 6.20914 16 4 16C1.79086 16 0 17.7909 0 20Z" fill="#465DFF"/>
<path fill-rule="evenodd" clip-rule="evenodd" d="M0 4C0 6.20914 1.79086 8 4 8C6.20914 8 8 6.20914 8 4C8 1.79086 6.20914 0 4 0C1.79086 0 0 1.79086 0 4Z" fill="#E1E4EB"/>
</svg>
