<svg width="22" height="22" viewBox="0 0 22 22" fill="none" xmlns="http://www.w3.org/2000/svg">
<path fill-rule="evenodd" clip-rule="evenodd" d="M11 22C17.0751 22 22 17.0751 22 11C22 4.92487 17.0751 0 11 0C4.92487 0 0 4.92487 0 11C0 17.0751 4.92487 22 11 22Z" fill="#6AC75A"/>
<path d="M7.61632 15.02C9.20299 13.956 10.4723 12.9013 11.4243 11.856C12.3763 10.8013 12.8523 9.82133 12.8523 8.916C12.8523 8.356 12.7077 7.908 12.4183 7.572C12.1383 7.22667 11.681 7.054 11.0463 7.054C10.393 7.054 9.89832 7.264 9.56232 7.684C9.22632 8.09467 9.03965 8.664 9.00232 9.392H7.74232C7.80765 8.29067 8.14832 7.446 8.76432 6.858C9.38032 6.26067 10.1737 5.962 11.1443 5.962C12.0683 5.962 12.801 6.20933 13.3423 6.704C13.8837 7.19867 14.1543 7.89867 14.1543 8.804C14.1543 9.55067 13.9117 10.3113 13.4263 11.086C12.9503 11.8513 12.3483 12.5653 11.6203 13.228C10.9017 13.8813 10.1597 14.4367 9.39432 14.894H14.4063V15.944H7.61632V15.02Z" fill="white"/>
</svg>
