<svg width="22" height="22" viewBox="0 0 22 22" fill="none" xmlns="http://www.w3.org/2000/svg">
<path fill-rule="evenodd" clip-rule="evenodd" d="M18.3334 3.66675H3.66671C2.65837 3.66675 1.84254 4.49175 1.84254 5.50008L1.83337 16.5001C1.83337 17.5084 2.65837 18.3334 3.66671 18.3334H18.3334C19.3417 18.3334 20.1667 17.5084 20.1667 16.5001V5.50008C20.1667 4.49175 19.3417 3.66675 18.3334 3.66675ZM17.9667 7.56258L11.4859 11.6142C11.1925 11.7976 10.8075 11.7976 10.5142 11.6142L4.03337 7.56258C3.80421 7.41591 3.66671 7.16841 3.66671 6.90258C3.66671 6.28841 4.33587 5.92175 4.85837 6.24258L11 10.0834L17.1417 6.24258C17.6642 5.92175 18.3334 6.28841 18.3334 6.90258C18.3334 7.16841 18.1959 7.41591 17.9667 7.56258Z" fill="#D9DCE3"/>
</svg>
