<svg width="445" height="750" viewBox="0 0 445 750" fill="none" xmlns="http://www.w3.org/2000/svg">
<path fill-rule="evenodd" clip-rule="evenodd" d="M222.5 598C345.383 598 445 498.383 445 375.5C445 252.617 345.383 153 222.5 153C99.6166 153 0 252.617 0 375.5C0 498.383 99.6166 598 222.5 598Z" fill="#F0F0F0"/>
<path d="M393.314 449.851C392.804 449.851 392.295 449.596 391.938 449.085C390.766 447.398 389.135 440.756 386.944 428.697C377.874 427.011 372.83 425.682 371.505 424.711C370.995 424.303 370.741 423.689 370.842 423.076C371.046 422.054 371.301 420.828 386.588 417.66C391.021 394.615 392.753 394.258 393.772 394.002C393.874 394.002 393.976 393.951 394.129 393.951C394.639 393.951 395.148 394.206 395.505 394.717C396.779 396.506 398.613 404.221 400.957 417.66C416.142 420.828 416.396 422.054 416.6 423.076C416.753 423.689 416.498 424.303 415.938 424.711C414.613 425.682 409.517 427.011 400.345 428.697C396.269 449.187 394.74 449.545 393.67 449.749C393.517 449.8 393.416 449.851 393.314 449.851Z" fill="#B600A0"/>
<path d="M239.225 97.7921C238.869 97.7921 238.563 97.6389 238.359 97.3323C237.595 96.2592 236.525 91.916 235.149 84.1492C229.289 83.0251 226.028 82.2075 225.162 81.5944C224.805 81.3389 224.652 80.9301 224.754 80.5213C224.907 79.8571 225.06 79.0906 234.945 76.9956C237.799 62.1264 238.92 61.8709 239.582 61.7176C239.633 61.7176 239.735 61.7176 239.786 61.7176C240.142 61.7176 240.448 61.8709 240.652 62.1775C241.467 63.3527 242.639 68.3091 244.168 76.9956C253.951 79.0395 254.155 79.806 254.257 80.4702C254.359 80.879 254.206 81.2878 253.849 81.5433C252.983 82.1564 249.722 83.0251 243.76 84.1492C241.111 97.3834 240.142 97.5878 239.429 97.741C239.378 97.741 239.276 97.7921 239.225 97.7921Z" fill="#00DBC5"/>
<path fill-rule="evenodd" clip-rule="evenodd" d="M178.505 129.428L106.351 114.86L109.247 32.357L3.91255 0L0.660535 93.4929H0.457284L0.0507812 109.186L178.2 142.31L178.505 129.428Z" fill="#5078FF"/>
<path fill-rule="evenodd" clip-rule="evenodd" d="M103.252 41.6603C102.439 63.3339 101.575 85.0075 100.762 106.681C94.8676 105.505 88.9733 104.33 83.079 103.154C78.6075 102.234 74.0851 101.365 69.6136 100.445C65.5994 99.627 61.5852 98.8602 57.6218 98.0423C47.7641 96.0999 37.9064 94.1063 28.0995 92.1639C22.3069 90.9882 16.5142 89.8636 10.7216 88.6879C11.3821 63.794 11.9919 38.8489 12.6524 13.955C23.3231 17.2264 33.9938 20.4468 44.6137 23.7183C53.5567 26.4275 62.449 29.1878 71.392 31.897C75.6095 33.1749 79.7762 34.4529 83.9936 35.7308C86.9408 36.6509 89.8879 37.5199 92.8859 38.44C96.2903 39.5134 99.7964 40.5869 103.252 41.6603Z" fill="#121212"/>
<path d="M67.327 48.7656C61.2295 63.0272 51.9815 66.3498 50.2539 76.471C49.4409 81.1226 50.1015 88.2279 57.571 98.0934C47.7133 96.151 37.8556 94.1574 28.0487 92.215C27.0833 88.1256 26.626 84.343 26.5751 80.9692C26.5751 80.9692 26.5243 76.3176 27.3882 71.8704C30.0304 57.8644 41.8698 51.9859 44.8169 37.7754C45.4267 34.8106 45.9348 30.0568 44.6137 23.8205C53.5567 26.5297 62.449 29.29 71.392 31.9992C71.0872 35.9352 70.1725 42.0692 67.327 48.7656Z" fill="white"/>
<path d="M76.524 78.669C74.6948 85.0075 76.1683 92.9818 83.0789 103.154C78.6073 102.234 74.085 101.365 69.6135 100.445C63.77 86.7966 64.7354 78.209 67.4285 72.5861C71.2903 64.6119 78.5565 62.7205 82.4183 52.9061C84.7049 47.1299 84.8065 41.1492 83.9427 35.7308C86.8898 36.6509 89.837 37.5199 92.8349 38.44C93.6479 48.1522 91.7679 55.5642 88.6175 61.2893C84.1459 69.4168 78.6073 71.4104 76.524 78.669Z" fill="white"/>
<path d="M348.974 198.487C343.69 188.928 348.822 178.552 357.257 173.031C367.673 166.232 380.529 167.51 392.064 164.29C397.196 162.859 402.429 160.354 405.529 155.804C407.257 153.249 408.273 150.386 408.679 147.37H412.897V154.68C410.001 161.478 404.208 166.488 396.738 169.197C385.102 173.44 371.383 171.242 360.61 178.091C356.495 180.698 352.734 184.992 352.785 190.155C352.836 194.142 355.377 199.101 359.696 199.663C363.558 200.174 363.558 206.308 359.696 205.797C355.123 205.235 351.261 202.679 348.974 198.487Z" fill="#F73200"/>
<path d="M312.237 214.385C300.448 212.544 289.473 204.928 281.343 196.494C277.836 192.864 274.483 188.877 270.062 186.321V179.574C276.973 182.488 282.359 189.082 287.796 194.347C292.369 198.794 297.603 202.372 303.344 205.081C308.832 207.688 316.048 210.244 321.942 207.484C326.566 205.337 329.005 200.532 326.566 195.778C324.178 191.229 319.808 188.008 316.607 184.021C309.645 175.331 308.477 163.523 311.779 153.095C312.389 151.102 313.202 149.21 314.117 147.37H321.078C316.607 154.884 314.676 164.034 317.267 172.571C318.842 177.683 322.196 181.261 325.753 185.043C329.005 188.468 332.511 192.302 333.426 197.107C334.442 202.27 332.359 207.279 328.344 210.602C323.822 214.385 317.928 215.305 312.237 214.385Z" fill="#F73200"/>
<path d="M386.474 252.569H379.36C377.074 248.735 374.889 245.055 371.637 241.783C363.659 233.707 352.176 229.157 340.946 232.275C330.631 235.138 325.346 244.492 319.3 252.569H311.525C311.627 252.467 311.729 252.313 311.83 252.211C318.029 244.952 322.399 236.109 330.377 230.537C339.625 224.046 352.176 223.739 362.338 228.084C372.501 232.429 379.97 240.761 385.204 250.32C385.56 250.933 385.966 251.751 386.474 252.569Z" fill="#F73200"/>
<path d="M412.948 237.132V244.85C410.051 247.304 407.358 250.013 404.513 252.569H394.807C395.773 251.904 396.637 251.189 397.399 250.626C401.972 247.099 405.885 242.857 410.356 239.176C411.22 238.461 412.084 237.796 412.948 237.132Z" fill="#F73200"/>
<path d="M443.232 218.218C442.724 219.701 440.946 220.774 439.065 220.365L432.358 219.292L431.698 219.19L422.551 217.707L420.366 217.349L414.675 216.429L406.799 215.151H406.647L397.145 213.618L396.891 213.567C395.417 211.369 394.045 209.835 392.165 209.784C390.539 209.784 388.812 210.755 388.049 212.135C382.104 211.164 376.159 210.193 370.265 209.273C368.131 208.353 365.997 207.484 363.863 206.564C361.627 205.592 359.391 204.672 357.155 203.701C359.493 203.548 361.881 203.343 364.218 203.19C366.606 203.037 368.944 202.832 371.332 202.679L385.204 204.928C386.779 207.637 392.216 207.586 397.247 206.87L400.499 207.382L412.44 209.324L420.112 210.551L420.316 210.602L420.62 210.653L428.852 211.982L429.665 212.084L431.596 212.391L440.336 213.822C442.47 214.078 443.791 216.429 443.232 218.218Z" fill="black"/>
<path d="M364.218 204.161C364.218 204.979 364.066 205.797 363.761 206.513C361.525 205.541 359.289 204.621 357.054 203.65C359.391 203.497 361.779 203.292 364.117 203.139C364.218 203.445 364.218 203.803 364.218 204.161Z" fill="white"/>
<path fill-rule="evenodd" clip-rule="evenodd" d="M342.877 639.32C330.428 653.07 321.586 659.306 316.149 662.425C315.082 663.038 304.513 668.968 304.31 668.661V668.61C302.735 664.878 225.601 433.881 222.603 424.628C207.359 424.322 189.219 422.788 169.046 418.852C147.959 414.712 129.87 408.936 115.185 403.159C121.536 407.402 130.632 414.456 138.762 425.395C155.835 448.347 155.123 470.071 161.882 495.272C165.235 507.847 171.18 523.949 182.613 542.044C186.221 547.82 190.388 553.75 195.215 559.884C196.079 561.009 196.942 562.082 197.857 563.207C196.638 563.615 195.418 564.076 194.199 564.484C191.963 565.251 189.727 566.069 187.491 566.836C178.701 569.954 169.91 573.021 161.17 576.139C157.817 577.315 154.463 578.491 151.109 579.666C151.109 579.666 151.109 579.666 151.109 579.717C148.721 576.497 146.231 573.021 143.589 569.341C135.865 558.402 127.176 545.316 118.183 530.389C87.39 478.915 36.1707 393.192 62.441 357.972C77.3799 337.934 112.39 340.899 168.995 345.704C185.459 347.084 199.381 349.333 205.581 350.407C236.983 355.825 262.339 363.799 280.123 370.291C280.123 370.291 294.096 407.146 299.076 431.683C303.954 455.708 305.479 477.177 305.529 494.556C316.2 504.371 321.84 513.776 324.838 519.859C337.643 545.725 330.326 565.762 336.83 609.621C338.812 622.809 341.352 633.339 342.877 639.32Z" fill="#FF6334"/>
<path fill-rule="evenodd" clip-rule="evenodd" d="M287.542 222.921C287.033 228.442 286.373 236.007 285.712 243.163C276.312 239.33 266.607 236.876 257.003 235.394L258.172 227.368C250.855 226.09 244.656 222.87 241.861 218.116C237.339 210.397 242.013 198.947 247.196 191.586L231.902 176.609L254.869 183.305C259.544 179.421 265.489 175.945 271.637 174.769C272.095 177.12 273.822 180.034 275.702 181.823C280.021 186.066 285.763 185.503 286.576 185.452C284.442 187.855 278.294 195.42 278.802 205.797C279.005 211.369 281.444 221.234 287.542 222.921Z" fill="#FF8F6D"/>
<path d="M300.296 182.436C292.267 171.14 274.838 168.073 271.993 171.957C271.485 172.673 271.383 173.644 271.586 174.769C272.044 177.12 273.771 180.034 275.651 181.823C279.971 186.066 285.712 185.503 286.525 185.452C284.391 187.855 278.243 195.42 278.751 205.797C279.056 211.369 281.444 221.285 287.542 222.921C287.592 222.921 287.643 222.921 287.643 222.972C290.946 223.79 294.046 221.899 294.91 221.388C304.411 215.305 309.29 195.113 300.296 182.436Z" fill="url(#paint0_linear_0_76)"/>
<path d="M251.668 212.749C245.926 212.749 242.013 209.324 241.963 209.273L244.3 206.615L243.131 207.944L244.3 206.615C244.605 206.87 251.871 213.056 260.865 205.235L263.202 207.944C258.985 211.624 255.021 212.749 251.668 212.749Z" fill="black"/>
<path d="M259.595 189.286C260.914 189.286 261.983 188.21 261.983 186.884C261.983 185.557 260.914 184.481 259.595 184.481C258.276 184.481 257.206 185.557 257.206 186.884C257.206 188.21 258.276 189.286 259.595 189.286Z" fill="black"/>
<path d="M265 175.742L268.439 174.829L271.265 185.604L267.826 186.517L265 175.742Z" fill="black"/>
<path fill-rule="evenodd" clip-rule="evenodd" d="M269.808 189.542L287.288 198.998L286.373 200.787L269.351 191.586C267.979 195.165 264.574 197.771 260.509 197.771C255.326 197.771 251.109 193.529 251.109 188.315C251.109 183.101 255.326 178.858 260.509 178.858C265.692 178.858 269.91 183.101 269.91 188.315C269.91 188.724 269.859 189.133 269.808 189.542ZM253.091 188.315C253.091 192.404 256.393 195.727 260.458 195.727C264.523 195.727 267.826 192.404 267.826 188.315C267.826 184.225 264.523 180.903 260.458 180.903C256.393 180.903 253.091 184.225 253.091 188.315Z" fill="black"/>
<path fill-rule="evenodd" clip-rule="evenodd" d="M276.769 200.481C285.509 195.829 293.334 194.705 296.383 197.669C297.501 198.743 297.653 200.021 297.653 200.378C298.111 205.592 288.253 211.471 279.259 212.033C277.481 212.135 276.058 212.033 275.245 211.931C275.804 208.046 276.312 204.263 276.769 200.481Z" fill="#FF8F6D"/>
<path d="M219.199 577.417L216.963 579.871L213.762 583.347L209.697 587.692L206.495 591.168L206.343 591.321L205.327 592.445L201.973 596.075L199.839 598.375L198.721 599.5L194.758 603.538L193.386 604.969L141.506 657.364L140.591 658.284L138.813 660.073C138.813 660.073 138.813 660.073 138.762 660.073C138.559 659.971 138.355 659.818 138.152 659.715C138 659.613 137.898 659.562 137.746 659.46C137.593 659.358 137.39 659.204 137.237 659.102C137.085 659 136.882 658.846 136.729 658.744C136.577 658.642 136.424 658.489 136.272 658.335C136.12 658.233 135.967 658.08 135.866 657.977C135.866 657.977 135.866 657.977 135.815 657.926C135.662 657.773 135.51 657.671 135.357 657.517C135.205 657.364 135.053 657.211 134.951 657.057C134.849 656.904 134.697 656.802 134.595 656.648C134.494 656.546 134.392 656.393 134.29 656.291C134.189 656.188 134.087 656.086 134.036 655.933C133.833 655.677 133.63 655.422 133.477 655.166C132.918 654.348 132.41 653.479 132.055 652.61C131.496 651.23 131.089 649.799 131.038 648.316C130.988 647.294 131.089 646.22 131.343 645.147C131.953 643.102 132.563 641.058 133.172 639.013L134.494 634.617C135.256 632.112 136.018 629.607 136.78 627.103C136.882 626.796 136.983 626.489 137.034 626.183C141.709 610.694 146.384 595.206 151.059 579.717V579.666C154.412 578.491 157.766 577.315 161.12 576.139C169.91 573.072 178.701 569.954 187.441 566.836C189.676 566.069 191.912 565.251 194.148 564.484C195.367 564.076 196.587 563.615 197.806 563.207C197.857 563.207 197.908 563.258 197.959 563.309C198.01 563.36 198.111 563.411 198.213 563.513C198.467 563.667 198.772 563.871 199.178 564.127C199.229 564.178 199.331 564.229 199.382 564.28L199.432 564.331C199.483 564.382 199.483 564.382 199.534 564.382C199.585 564.382 199.636 564.433 199.636 564.484C199.737 564.536 199.788 564.587 199.89 564.638C199.94 564.638 199.94 564.689 199.991 564.689C200.093 564.791 200.245 564.842 200.347 564.945C200.449 565.047 200.601 565.098 200.703 565.2C200.753 565.2 200.804 565.251 200.855 565.302C200.957 565.353 201.008 565.405 201.109 565.456C201.211 565.558 201.363 565.609 201.465 565.711C201.465 565.711 201.516 565.711 201.516 565.762C201.668 565.865 201.821 565.967 201.922 566.069C202.227 566.274 202.532 566.478 202.837 566.682C203.751 567.296 204.819 568.012 205.886 568.727C207.054 569.494 208.274 570.312 209.493 571.13C209.595 571.232 209.747 571.283 209.849 571.385C210.103 571.59 210.408 571.743 210.662 571.948C210.713 571.999 210.764 571.999 210.814 572.05C211.272 572.356 211.729 572.663 212.186 572.97C213.101 573.583 214.016 574.197 214.93 574.81C215.489 575.168 216.048 575.577 216.607 575.935C216.861 576.139 217.166 576.292 217.42 576.497C217.471 576.548 217.522 576.599 217.623 576.65C217.877 576.855 218.182 577.008 218.436 577.213C218.792 577.161 218.995 577.315 219.199 577.417Z" fill="#4D00FF"/>
<path d="M219.199 577.417L216.963 579.871L213.762 583.347L209.697 587.692L206.495 591.167L206.343 591.321L205.327 592.445L201.973 596.075L199.839 598.375L198.721 599.5L194.758 603.538L193.386 604.969L141.506 657.364L140.591 658.284L138.813 660.073C138.813 660.073 138.813 660.073 138.762 660.073C138.559 659.971 138.355 659.818 138.152 659.715C138 659.613 137.898 659.562 137.746 659.46C137.593 659.358 137.39 659.204 137.237 659.102C137.085 659 136.882 658.846 136.729 658.744C136.577 658.642 136.424 658.489 136.272 658.335C136.12 658.233 135.967 658.08 135.866 657.977C135.866 657.977 135.866 657.977 135.815 657.926C135.662 657.773 135.51 657.671 135.357 657.517C135.205 657.364 135.053 657.211 134.951 657.057C134.849 656.904 134.697 656.802 134.595 656.648C134.494 656.546 134.392 656.393 134.29 656.29C134.189 656.188 134.087 656.086 134.036 655.933C133.833 655.677 133.63 655.422 133.477 655.166C132.918 654.348 132.41 653.479 132.055 652.61C131.496 651.23 131.089 649.799 131.038 648.316C132.41 648.572 133.884 648.827 135.357 648.93C147.248 649.645 154.92 636.662 182.867 608.138C185.357 605.634 187.339 603.589 188.558 602.413C187.034 598.324 185.306 592.497 184.798 585.34C184.341 579.002 184.9 573.583 185.611 569.545C185.611 569.545 185.611 569.545 185.611 569.494C187.136 568.778 188.66 568.063 190.184 567.296C191.404 566.734 192.573 566.12 193.792 565.558C195.113 564.74 196.485 563.973 197.806 563.155C197.857 563.207 197.908 563.207 197.959 563.258C198.01 563.309 198.111 563.36 198.213 563.462C198.467 563.615 198.772 563.82 199.178 564.076C199.229 564.127 199.331 564.178 199.382 564.229L199.432 564.28C199.483 564.331 199.585 564.382 199.686 564.433C199.788 564.484 199.839 564.536 199.94 564.587C199.991 564.587 199.991 564.638 200.042 564.638C200.144 564.74 200.296 564.791 200.398 564.893C200.499 564.996 200.652 565.047 200.753 565.149C200.804 565.2 200.855 565.2 200.906 565.251C201.008 565.302 201.058 565.353 201.16 565.405C201.211 565.456 201.312 565.507 201.363 565.558C201.414 565.609 201.516 565.66 201.566 565.711C201.719 565.813 201.871 565.916 201.973 566.018C202.278 566.222 202.583 566.427 202.888 566.631C203.802 567.245 204.869 567.96 205.936 568.676C207.105 569.443 208.325 570.261 209.544 571.079C209.646 571.181 209.798 571.232 209.9 571.334C210.154 571.539 210.459 571.692 210.713 571.896C210.764 571.948 210.814 571.948 210.865 571.999C211.323 572.305 211.78 572.612 212.237 572.919C213.152 573.532 214.066 574.146 214.981 574.759C215.54 575.117 216.099 575.526 216.658 575.884C216.912 576.088 217.217 576.241 217.471 576.446C217.522 576.497 217.573 576.548 217.674 576.599C217.928 576.804 218.233 576.957 218.487 577.161C218.792 577.161 218.995 577.315 219.199 577.417Z" fill="white"/>
<path d="M219.198 577.417L216.963 579.871L213.762 583.347L209.696 587.692L206.495 591.167L206.343 591.321L205.327 592.445L201.973 596.075L199.839 598.375L198.721 599.5L194.758 603.538L193.386 604.969C189.27 594.235 189.27 580.024 193.945 565.609V565.558C194.046 565.2 194.199 564.842 194.3 564.433C195.52 564.024 196.739 563.564 197.959 563.155C198.01 563.155 198.06 563.207 198.111 563.258C198.162 563.309 198.264 563.36 198.365 563.462C198.619 563.615 198.924 563.82 199.331 564.076C199.381 564.127 199.483 564.178 199.534 564.229L199.585 564.28C199.636 564.331 199.636 564.331 199.686 564.331C199.737 564.331 199.788 564.382 199.788 564.433C199.89 564.484 199.94 564.536 200.042 564.587C200.093 564.587 200.093 564.638 200.144 564.638C200.245 564.74 200.398 564.791 200.499 564.893C200.601 564.996 200.753 565.047 200.855 565.149C200.906 565.149 200.957 565.2 201.007 565.251C201.109 565.302 201.16 565.353 201.262 565.405C201.312 565.456 201.414 565.507 201.465 565.558C201.516 565.609 201.566 565.609 201.617 565.66C201.617 565.66 201.668 565.66 201.668 565.711C201.821 565.813 201.973 565.916 202.075 566.018C202.379 566.222 202.684 566.427 202.989 566.631C203.904 567.245 204.971 567.96 206.038 568.676C207.207 569.443 208.426 570.261 209.646 571.079C209.747 571.181 209.9 571.232 210.001 571.334C210.255 571.539 210.56 571.692 210.814 571.896C210.865 571.948 210.916 571.948 210.967 571.999C211.424 572.305 211.881 572.612 212.339 572.919C213.253 573.532 214.168 574.146 215.083 574.759C215.642 575.117 216.201 575.526 216.759 575.884C217.014 576.088 217.318 576.241 217.572 576.446C217.623 576.497 217.674 576.548 217.776 576.599C218.03 576.804 218.335 576.957 218.589 577.161C218.792 577.161 218.995 577.315 219.198 577.417Z" fill="#B600A0"/>
<path fill-rule="evenodd" clip-rule="evenodd" d="M228.802 583.909C228.294 584.42 227.735 584.931 227.176 585.442C226.007 586.567 224.89 587.692 223.721 588.816C222.298 590.247 220.825 591.628 219.402 593.008C218.233 594.132 217.115 595.257 215.946 596.382C214.32 597.966 212.694 599.551 211.068 601.135C209.9 602.26 208.782 603.385 207.613 604.509C201.668 610.234 195.774 616.01 189.829 621.736C182.054 629.25 173.619 636.202 166.353 644.227C166.048 644.585 165.743 644.943 165.388 645.3C165.388 645.3 153.142 659.204 145.672 660.687C142.065 661.402 139.575 660.431 138.863 660.073C138.711 660.022 138.66 659.971 138.66 659.971C138.203 659.767 137.593 659.409 136.882 658.898C136.628 658.693 135.764 658.08 134.798 657.006C134.29 656.495 133.782 655.831 133.325 655.064C132.918 654.45 132.461 653.632 132.055 652.559C133.985 652.764 136.221 652.764 138.762 652.406C151.922 650.463 158.223 639.422 176.719 620.662C180.378 616.982 185.967 611.461 193.284 605.02C194.351 602.822 195.418 600.624 196.485 598.426L198.467 594.286C199.432 592.343 200.347 590.401 201.312 588.458C201.973 587.078 202.634 585.698 203.294 584.318C204.158 582.58 204.971 580.842 205.784 579.104C206.445 577.724 207.105 576.344 207.766 574.963C208.375 573.686 208.985 572.408 209.646 571.13C210.814 571.027 220.164 570.516 225.652 577.366C227.532 579.615 228.396 582.069 228.802 583.909Z" fill="#4ABA6B"/>
<path d="M227.227 585.442C226.058 586.567 224.94 587.692 223.772 588.816L213.711 583.347L205.784 579.053C206.445 577.673 207.105 576.293 207.766 574.912L216.912 579.871L227.227 585.442Z" fill="#FFE323"/>
<path d="M219.453 593.008C218.284 594.132 217.166 595.257 215.997 596.381L206.445 591.219L201.262 588.407C201.922 587.027 202.583 585.647 203.243 584.267L209.595 587.743L219.453 593.008Z" fill="#FFE323"/>
<path d="M211.119 601.135C209.951 602.26 208.833 603.384 207.664 604.509L198.619 599.602L196.434 598.426L198.416 594.286L201.871 596.177L211.119 601.135Z" fill="#FFE323"/>
<path d="M172.146 605.02C175.934 605.02 179.006 601.931 179.006 598.119C179.006 594.308 175.934 591.219 172.146 591.219C168.357 591.219 165.286 594.308 165.286 598.119C165.286 601.931 168.357 605.02 172.146 605.02Z" fill="#F73200"/>
<path d="M166.404 644.227C166.099 644.585 165.794 644.943 165.439 645.3C165.439 645.3 153.193 659.204 145.723 660.687C141.404 661.556 138.66 659.971 138.66 659.971C138.203 659.766 137.593 659.409 136.882 658.897C136.628 658.693 135.764 658.08 134.798 657.006C136.272 656.904 137.847 657.057 139.321 657.62C141.201 658.386 141.404 659.153 142.776 659.409C146.841 660.124 150.093 654.195 154.819 650.054C157.359 647.907 160.967 645.607 166.404 644.227Z" fill="#F73200"/>
<path d="M198.314 563.462C196.79 564.178 195.317 564.893 193.843 565.609C191.099 566.938 188.406 568.216 185.662 569.494C185.408 569.647 185.103 569.75 184.849 569.903C178.243 573.072 171.485 576.241 164.778 579.411C161.018 588.918 157.766 598.631 155.225 608.189C154.514 610.848 153.904 613.352 153.294 615.755C150.246 627.818 148.061 636.559 140.896 639.013C139.727 639.422 138.508 639.575 137.237 639.575C135.967 639.575 134.646 639.371 133.223 638.962L134.544 634.566C136.374 635.077 138 635.077 139.422 634.617C144.25 632.981 146.181 625.314 148.823 614.63C149.433 612.177 150.042 609.672 150.754 607.014C153.447 596.995 156.851 586.823 160.815 576.855L161.119 576.088V576.037L161.932 575.628C168.945 572.357 175.957 568.983 182.817 565.711C186.932 563.769 191.048 561.775 195.164 559.782C196.028 560.906 196.892 561.98 197.806 563.104C197.857 563.104 197.908 563.155 197.959 563.207C198.111 563.36 198.213 563.411 198.314 563.462Z" fill="#FFE323"/>
<path d="M370.163 651.025L368.487 653.888L366.149 658.029L363.202 663.191L360.814 667.332L360.712 667.536L359.95 668.814L357.46 673.108L355.885 675.868L355.021 677.248L352.023 682.053L351.007 683.74L312.288 746.461L311.627 747.534L310.306 749.681C310.306 749.681 310.306 749.681 310.255 749.681C310.052 749.63 309.798 749.528 309.594 749.477C309.442 749.426 309.29 749.375 309.137 749.323C308.934 749.272 308.731 749.17 308.527 749.068C308.324 748.966 308.172 748.914 307.968 748.812C307.765 748.71 307.613 748.659 307.41 748.557C307.257 748.454 307.054 748.352 306.901 748.301C306.901 748.301 306.851 748.301 306.851 748.25C306.647 748.148 306.495 748.045 306.292 747.943C306.139 747.841 305.936 747.739 305.784 747.585C305.631 747.483 305.479 747.381 305.326 747.279C305.174 747.176 305.072 747.074 304.971 747.023C304.869 746.921 304.767 746.87 304.615 746.768C304.361 746.563 304.107 746.359 303.903 746.154C303.192 745.49 302.481 744.774 301.922 743.956C301.058 742.78 300.397 741.451 299.991 740.02C299.737 738.998 299.584 737.975 299.584 736.851C299.737 734.704 299.889 732.608 299.991 730.461L300.296 725.861C300.448 723.254 300.651 720.647 300.804 718.04C300.804 717.733 300.855 717.426 300.855 717.12C301.973 700.967 303.04 684.814 304.107 668.661V668.61C307.105 666.718 310.103 664.776 313.101 662.885C320.977 657.875 328.853 652.866 336.678 647.907C338.659 646.629 340.692 645.352 342.674 644.074C343.791 643.358 344.859 642.693 345.976 641.978C346.027 641.978 346.078 642.029 346.129 642.029C346.231 642.08 346.332 642.08 346.434 642.131C346.688 642.233 347.044 642.387 347.501 642.54C347.552 642.591 347.653 642.591 347.755 642.642C347.806 642.642 347.806 642.642 347.857 642.693C347.907 642.693 347.958 642.745 347.958 642.745C348.009 642.745 348.06 642.796 348.111 642.796C348.212 642.847 348.263 642.847 348.365 642.898C348.415 642.898 348.415 642.898 348.466 642.949C348.568 643 348.72 643.051 348.873 643.102C349.025 643.153 349.127 643.205 349.279 643.256C349.33 643.256 349.381 643.307 349.432 643.307C349.533 643.358 349.635 643.358 349.737 643.409C349.838 643.46 349.991 643.511 350.143 643.562H350.194C350.346 643.614 350.499 643.665 350.702 643.767C351.058 643.869 351.363 644.022 351.718 644.176C352.785 644.585 353.903 644.994 355.174 645.454C356.444 645.965 357.816 646.476 359.239 646.987C359.391 647.038 359.493 647.089 359.645 647.141C359.95 647.243 360.255 647.396 360.56 647.498C360.611 647.498 360.661 647.55 360.712 647.55C361.22 647.754 361.728 647.958 362.237 648.112C363.253 648.521 364.269 648.879 365.285 649.288C365.895 649.543 366.556 649.748 367.165 650.003C367.47 650.105 367.775 650.259 368.08 650.361C368.131 650.412 368.232 650.412 368.283 650.463C368.588 650.565 368.893 650.719 369.198 650.821C369.706 650.872 369.96 650.974 370.163 651.025Z" fill="#4D00FF"/>
<path d="M370.163 651.026L368.486 653.888L366.149 658.029L363.202 663.191L360.814 667.332L360.712 667.536L359.95 668.814L357.46 673.108L355.885 675.868L355.021 677.249L352.023 682.054L351.007 683.74L312.288 746.461L311.627 747.534L310.306 749.681C310.306 749.681 310.306 749.681 310.255 749.681C310.052 749.63 309.798 749.528 309.594 749.477C309.442 749.426 309.29 749.375 309.137 749.323C308.934 749.272 308.731 749.17 308.527 749.068C308.324 748.966 308.172 748.914 307.968 748.812C307.765 748.71 307.613 748.659 307.41 748.557C307.257 748.454 307.054 748.352 306.901 748.301C306.901 748.301 306.851 748.301 306.851 748.25C306.647 748.148 306.495 748.045 306.292 747.943C306.139 747.841 305.936 747.739 305.784 747.585C305.631 747.483 305.479 747.381 305.326 747.279C305.174 747.177 305.072 747.074 304.97 747.023C304.869 746.921 304.767 746.87 304.615 746.768C304.361 746.563 304.107 746.359 303.903 746.154C303.192 745.49 302.481 744.774 301.922 743.956C301.058 742.78 300.397 741.451 299.991 740.02C301.363 739.918 302.887 739.918 304.361 739.662C316.099 737.669 320.672 723.305 341.556 689.21C343.385 686.194 344.909 683.791 345.824 682.36C343.385 678.731 340.438 673.415 338.304 666.565C336.424 660.482 335.763 655.064 335.611 651.026C335.611 651.026 335.611 651.026 335.611 650.974C336.932 649.952 338.253 648.879 339.574 647.805C340.641 646.987 341.657 646.118 342.674 645.3C343.791 644.227 344.909 643.154 346.078 642.029C346.129 642.029 346.18 642.08 346.23 642.08C346.332 642.131 346.434 642.131 346.535 642.182C346.789 642.285 347.145 642.438 347.602 642.591C347.653 642.642 347.755 642.642 347.857 642.693C347.907 642.693 347.907 642.693 347.958 642.745C348.06 642.796 348.111 642.796 348.212 642.847C348.314 642.898 348.365 642.898 348.466 642.949C348.517 642.949 348.517 642.949 348.568 643C348.67 643.051 348.822 643.102 348.974 643.154C349.127 643.205 349.228 643.256 349.381 643.307C349.432 643.307 349.483 643.358 349.533 643.358C349.635 643.409 349.737 643.409 349.838 643.46C349.889 643.511 349.991 643.511 350.041 643.562C350.143 643.614 350.194 643.614 350.296 643.665C350.448 643.716 350.6 643.767 350.804 643.869C351.159 643.971 351.464 644.125 351.82 644.278C352.887 644.687 354.005 645.096 355.275 645.556C356.545 646.067 357.917 646.578 359.34 647.09C359.493 647.141 359.594 647.192 359.747 647.243C360.052 647.345 360.356 647.498 360.661 647.601C360.712 647.601 360.763 647.652 360.814 647.652C361.322 647.856 361.83 648.061 362.338 648.214C363.354 648.623 364.371 648.981 365.387 649.39C365.997 649.645 366.657 649.85 367.267 650.105C367.572 650.208 367.877 650.361 368.182 650.463C368.232 650.514 368.334 650.514 368.385 650.565C368.69 650.668 368.995 650.821 369.299 650.923C369.706 650.872 369.96 650.974 370.163 651.026Z" fill="white"/>
<path d="M370.163 651.026L368.486 653.888L366.149 658.029L363.202 663.191L360.814 667.332L360.712 667.536L359.95 668.814L357.46 673.108L355.885 675.868L355.021 677.249L352.023 682.054L351.007 683.74C344.604 674.182 341.403 660.38 342.724 645.249V645.198C342.775 644.789 342.775 644.431 342.826 644.023C343.944 643.307 345.011 642.642 346.129 641.927C346.18 641.927 346.23 641.978 346.281 641.978C346.383 642.029 346.485 642.029 346.586 642.08C346.84 642.182 347.196 642.336 347.653 642.489C347.704 642.54 347.806 642.54 347.907 642.591C347.958 642.591 347.958 642.591 348.009 642.642C348.06 642.642 348.111 642.694 348.111 642.694C348.161 642.694 348.212 642.745 348.263 642.745C348.365 642.796 348.415 642.796 348.517 642.847C348.568 642.847 348.568 642.847 348.619 642.898C348.72 642.949 348.873 643 349.025 643.051C349.178 643.102 349.279 643.154 349.432 643.205C349.482 643.205 349.533 643.256 349.584 643.256C349.686 643.307 349.787 643.307 349.889 643.358C349.94 643.409 350.041 643.409 350.092 643.46C350.143 643.46 350.194 643.511 350.245 643.511H350.295C350.448 643.563 350.6 643.614 350.804 643.716C351.159 643.818 351.464 643.971 351.82 644.125C352.887 644.534 354.005 644.943 355.275 645.403C356.545 645.914 357.917 646.425 359.34 646.936C359.493 646.987 359.594 647.038 359.747 647.09C360.052 647.192 360.356 647.345 360.661 647.447C360.712 647.447 360.763 647.499 360.814 647.499C361.322 647.703 361.83 647.907 362.338 648.061C363.354 648.47 364.371 648.828 365.387 649.236C365.997 649.492 366.657 649.697 367.267 649.952C367.572 650.054 367.877 650.208 368.182 650.31C368.232 650.361 368.334 650.361 368.385 650.412C368.69 650.514 368.995 650.668 369.299 650.77C369.706 650.872 369.96 650.974 370.163 651.026Z" fill="#B600A0"/>
<path fill-rule="evenodd" clip-rule="evenodd" d="M380.986 655.166C380.58 655.779 380.173 656.444 379.767 657.057C378.903 658.437 378.039 659.766 377.175 661.095C376.108 662.782 374.991 664.469 373.923 666.207C373.06 667.536 372.196 668.916 371.332 670.245C370.112 672.137 368.893 674.028 367.673 675.971C366.81 677.3 365.946 678.68 365.082 680.009C360.611 686.961 356.088 693.913 351.617 700.813C345.722 709.912 339.066 718.551 333.781 728.059C333.527 728.468 333.324 728.877 333.07 729.286C333.07 729.286 324.229 745.592 317.267 748.71C313.914 750.243 311.271 749.835 310.458 749.681C310.306 749.63 310.204 749.63 310.204 749.63C309.696 749.528 309.036 749.323 308.273 749.017C307.968 748.914 307.003 748.505 305.834 747.637C305.225 747.228 304.615 746.716 303.954 746.103C303.446 745.592 302.786 744.927 302.176 743.956C304.107 743.701 306.292 743.189 308.629 742.269C321.027 737.362 324.737 725.196 338.507 702.756C341.251 698.309 345.468 691.663 351.159 683.74C351.718 681.338 352.226 678.986 352.785 676.584L353.802 672.086C354.31 669.99 354.767 667.843 355.224 665.747C355.58 664.265 355.885 662.731 356.241 661.249C356.647 659.358 357.104 657.517 357.511 655.626C357.867 654.144 358.222 652.661 358.527 651.128C358.832 649.748 359.137 648.367 359.493 646.936C360.611 646.578 369.604 643.971 376.515 649.441C378.801 651.281 380.173 653.479 380.986 655.166Z" fill="#4ABA6B"/>
<path d="M379.767 657.006C378.903 658.386 378.039 659.715 377.175 661.044L366.2 658.029L357.562 655.626C357.917 654.144 358.273 652.661 358.578 651.128L368.588 653.888L379.767 657.006Z" fill="#FFE323"/>
<path d="M373.873 666.156C373.009 667.485 372.145 668.865 371.281 670.194L360.865 667.281L355.224 665.696C355.58 664.214 355.885 662.68 356.241 661.198L363.253 663.14L373.873 666.156Z" fill="#FFE323"/>
<path d="M367.572 675.919C366.708 677.248 365.844 678.629 364.98 679.958L355.072 677.197L352.684 676.533L353.7 672.035L357.46 673.057L367.572 675.919Z" fill="#FFE323"/>
<path d="M328.954 688.699C332.743 688.699 335.814 685.609 335.814 681.798C335.814 677.987 332.743 674.897 328.954 674.897C325.166 674.897 322.094 677.987 322.094 681.798C322.094 685.609 325.166 688.699 328.954 688.699Z" fill="#F73200"/>
<path d="M333.629 728.059C333.375 728.468 333.172 728.877 332.918 729.286C332.918 729.286 324.076 745.592 317.115 748.71C313.101 750.499 310.103 749.579 310.103 749.579C309.594 749.477 308.934 749.272 308.172 748.966C307.867 748.863 306.901 748.454 305.733 747.585C307.155 747.125 308.68 746.921 310.306 747.176C312.338 747.483 312.694 748.199 314.066 748.148C318.182 747.943 320.011 741.4 323.72 736.34C325.651 733.682 328.649 730.615 333.629 728.059Z" fill="#F73200"/>
<path d="M346.688 642.131C345.367 643.154 344.096 644.227 342.775 645.249C340.387 647.141 338.05 649.032 335.661 650.923C335.407 651.128 335.204 651.281 334.95 651.486C329.208 656.035 323.365 660.687 317.521 665.287C315.946 675.408 314.981 685.581 314.625 695.497C314.523 698.258 314.472 700.813 314.422 703.267C314.168 715.74 314.015 724.736 307.562 728.723C306.495 729.388 305.377 729.848 304.157 730.104C302.938 730.41 301.566 730.512 300.143 730.41L300.448 725.81C302.328 725.912 303.903 725.554 305.174 724.736C309.493 722.078 309.645 714.104 309.899 703.114C309.95 700.609 310.001 698.002 310.103 695.242C310.509 684.865 311.525 674.182 313.202 663.6L313.355 662.782V662.731L314.066 662.169C320.163 657.364 326.261 652.559 332.206 647.805C335.763 644.943 339.32 642.131 342.928 639.269C343.995 640.138 345.113 641.007 346.281 641.927C346.332 641.927 346.383 641.978 346.434 641.978C346.485 642.08 346.586 642.131 346.688 642.131Z" fill="#FFE323"/>
<path fill-rule="evenodd" clip-rule="evenodd" d="M438.761 256.607C430.021 253.438 421.332 250.32 412.592 247.15C412.287 247.048 411.931 246.895 411.627 246.793C407.003 256.045 401.616 265.859 395.366 276.083C395.163 276.389 394.96 276.747 394.757 277.054C392.724 280.325 390.692 283.546 388.608 286.613C382.257 296.223 375.854 304.862 369.706 312.58C363.354 303.839 354.056 292.389 341.302 280.53C323.263 263.763 304.666 252.109 292.826 246.333C290.438 245.157 288.05 244.135 285.662 243.112C276.261 239.278 266.556 236.825 256.952 235.342C246.383 233.707 235.865 233.247 225.957 233.553C220.774 233.707 215.794 234.065 210.967 234.576C188.05 236.978 170.063 242.601 164.117 244.492C163.558 231.406 163.406 217.503 163.813 202.781C163.914 199.254 164.016 195.829 164.168 192.404C164.371 187.19 164.676 182.13 165.032 177.12C165.489 170.373 166.048 163.881 166.709 157.542C166.353 157.44 165.997 157.338 165.642 157.236C154.717 154.066 143.792 150.846 132.817 147.677C132.359 147.524 131.902 147.421 131.496 147.268C129.666 159.894 128.142 171.702 126.77 182.488C124.788 198.436 123.772 206.41 123.366 211.778C120.927 242.703 118.996 266.933 133.02 280.223C140.337 287.175 149.128 288.402 165.439 290.702C185.256 293.514 201.77 291.06 212.237 288.657C210.154 297.194 208.274 307.008 207.003 317.845C206.14 325.359 205.682 332.465 205.53 339.008C205.428 342.944 205.428 346.675 205.53 350.253C207.816 350.662 210.052 351.071 212.237 351.48C239.828 356.694 262.745 363.85 280.072 370.138C289.117 354.189 298.162 338.292 307.206 322.344C312.948 328.478 322.044 336.861 334.747 344.273C338.558 346.471 342.216 348.618 345.824 350.509C350.55 353.014 355.123 355.161 359.696 356.541C364.93 358.125 370.113 358.739 375.448 357.87C395.214 354.701 406.698 333.027 421.484 305.117C431.799 285.642 437.643 268.517 440.996 257.272C440.285 257.118 439.523 256.863 438.761 256.607Z" fill="#5F2CE6"/>
<path d="M220.062 243.266C215.896 244.083 211.881 241.323 211.068 237.132C210.916 236.263 210.865 235.445 211.018 234.576C215.794 234.065 220.824 233.707 226.007 233.553C226.058 233.758 226.109 233.962 226.16 234.167C226.922 238.41 224.229 242.448 220.062 243.266Z" fill="#00B657"/>
<path d="M136.221 259.879C140.459 259.879 143.894 256.423 143.894 252.16C143.894 247.897 140.459 244.441 136.221 244.441C131.984 244.441 128.548 247.897 128.548 252.16C128.548 256.423 131.984 259.879 136.221 259.879Z" fill="#FFE323"/>
<path d="M165.083 177.223C164.727 182.181 164.473 187.293 164.219 192.506C160.408 192.813 156.851 190.155 156.14 186.27C155.327 182.079 158.071 178.04 162.186 177.223C163.203 177.018 164.168 177.018 165.083 177.223Z" fill="#00B657"/>
<path d="M260.458 319.225C264.696 319.225 268.131 315.77 268.131 311.507C268.131 307.244 264.696 303.788 260.458 303.788C256.221 303.788 252.786 307.244 252.786 311.507C252.786 315.77 256.221 319.225 260.458 319.225Z" fill="#00B657"/>
<path d="M305.072 288.095C309.31 288.095 312.745 284.639 312.745 280.376C312.745 276.114 309.31 272.658 305.072 272.658C300.835 272.658 297.399 276.114 297.399 280.376C297.399 284.639 300.835 288.095 305.072 288.095Z" fill="#FFE323"/>
<path d="M359.747 356.694C355.174 355.314 350.6 353.218 345.875 350.662C346.586 347.851 348.822 345.5 351.871 344.937C356.037 344.119 360.052 346.88 360.865 351.071C361.271 353.065 360.814 355.058 359.747 356.694Z" fill="#00B657"/>
<path d="M212.288 351.582C210.103 351.174 207.816 350.765 205.581 350.356C205.479 346.777 205.479 343.046 205.581 339.11C209.442 338.752 213.05 341.41 213.812 345.346C214.219 347.646 213.609 349.896 212.288 351.582Z" fill="#00B657"/>
<path d="M397.247 291.367C393.588 292.082 389.98 290.038 388.659 286.613C390.692 283.546 392.775 280.325 394.808 277.054C395.011 276.747 395.214 276.389 395.417 276.083C399.177 275.878 402.633 278.485 403.344 282.319C404.106 286.511 401.362 290.549 397.247 291.367Z" fill="#FFE323"/>
<path fill-rule="evenodd" clip-rule="evenodd" d="M165.693 157.338C154.768 154.169 143.843 150.948 132.867 147.779C128.802 141.543 127.532 134.182 129.158 127.486C128.091 126.975 127.888 126.923 127.888 126.923C114.778 123.55 104.006 129.837 101.262 125.134C101.16 124.981 100.601 123.959 100.754 122.834C98.8229 123.192 97.2985 123.038 96.2822 121.812C96.1806 121.709 95.266 120.585 95.3676 119.205C95.5708 117.16 98.0607 115.678 101.16 114.502C97.8066 114.809 95.4184 114.706 94.3005 112.815C94.1989 112.662 93.4875 111.384 93.894 110.106C94.8595 106.834 101.719 106.272 107.156 105.863C111.628 105.505 116.963 105.148 123.67 106.886C128.904 108.215 132.715 110.259 135.205 111.639C136.475 112.355 137.695 113.071 138.762 113.735C137.644 109.901 136.526 106.068 135.408 102.183C130.073 102.387 125.449 102.438 121.739 102.438C116.252 102.438 112.695 102.234 111.526 100.036C111.424 99.7803 110.916 98.9113 111.17 97.9912C111.679 96.2532 114.422 95.0775 127.227 94.3619C135.052 93.9529 138.914 93.7485 139.88 94.2597C143.335 96.0999 144.046 99.4736 148.873 114.604C149.788 116.035 160.459 139.191 165.693 157.338Z" fill="#FF8F6D"/>
<path fill-rule="evenodd" clip-rule="evenodd" d="M432.409 219.292L431.748 219.19L422.602 217.707L420.417 217.349L414.726 216.429L406.85 215.151H406.698L397.196 213.618C397.145 213.669 397.145 213.771 397.094 213.822C397.043 213.72 396.992 213.618 396.942 213.567C395.468 211.369 394.096 209.835 392.216 209.784C390.59 209.784 388.862 210.755 388.1 212.135C387.49 213.209 386.576 215.969 392.419 224.659C390.59 229.566 389.98 233.196 391.759 234.934C391.911 235.036 392.623 235.751 393.639 235.854C395.163 236.007 396.789 234.831 398.314 232.889C398.314 232.94 398.263 232.991 398.263 233.042C397.45 235.547 397.297 237.489 398.314 238.716C398.923 239.432 399.838 239.687 400.143 239.739C400.956 239.892 401.82 239.534 402.734 238.818C402.988 238.614 403.293 238.358 403.547 238.103C406.139 240.71 409.086 243.419 412.49 246.179C412.541 246.537 412.592 246.844 412.643 247.202C421.383 250.371 430.072 253.489 438.811 256.658C434.543 233.502 432.46 220.059 432.409 219.292Z" fill="#FF8F6D"/>
<path fill-rule="evenodd" clip-rule="evenodd" d="M397.145 206.768C398.568 206.564 399.94 206.308 401.159 206.052C400.905 206.41 400.651 206.819 400.346 207.279L412.287 209.222L419.96 210.449L420.163 210.5L420.468 210.551L427.683 211.726L431.443 212.34C430.58 207.842 429.411 205.184 426.972 203.241C425.956 202.423 423.567 201.503 418.791 199.663C412.694 197.311 409.645 196.136 406.444 196.034C403.598 195.931 404.411 196.545 395.62 198.129C388.964 199.305 385.763 199.407 384.848 201.605C384.391 202.73 384.696 204.059 385.153 204.877C386.677 207.535 392.114 207.535 397.145 206.768Z" fill="#FF8F6D"/>
<path d="M131.699 116.547C127.38 114.502 122.756 113.275 117.979 112.968C112.441 112.611 106.8 113.48 101.567 115.524L100.805 113.633C106.292 111.486 112.237 110.566 118.081 110.924C123.111 111.282 127.939 112.508 132.512 114.706L131.699 116.547Z" fill="black"/>
<path d="M101.465 123.601L100.042 122.118C100.449 121.709 110.103 112.764 130.682 119.92L130.022 121.863C110.611 115.115 101.567 123.55 101.465 123.601Z" fill="black"/>
<path d="M412.998 227.931C408.019 225.17 403.598 221.694 399.889 217.503C398.059 215.407 396.383 213.158 394.909 210.755L396.637 209.682C398.059 211.982 399.635 214.129 401.413 216.122C404.97 220.161 409.187 223.534 414.015 226.141L412.998 227.931Z" fill="black"/>
<defs>
<linearGradient id="paint0_linear_0_76" x1="271.463" y1="223.183" x2="305.053" y2="223.183" gradientUnits="userSpaceOnUse">
<stop offset="0.5605"/>
<stop offset="1" stop-color="#1244EE"/>
</linearGradient>
</defs>
</svg>
