<svg width="65" height="65" viewBox="0 0 65 65" fill="none" xmlns="http://www.w3.org/2000/svg">
<rect width="65" height="65" rx="22" fill="#EFF2FF"/>
<path fill-rule="evenodd" clip-rule="evenodd" d="M38.5 28.5H37.5V26.5C37.5 23.74 35.26 21.5 32.5 21.5C29.74 21.5 27.5 23.74 27.5 26.5V28.5H26.5C25.4 28.5 24.5 29.4 24.5 30.5V40.5C24.5 41.6 25.4 42.5 26.5 42.5H38.5C39.6 42.5 40.5 41.6 40.5 40.5V30.5C40.5 29.4 39.6 28.5 38.5 28.5ZM32.5 37.5C31.4 37.5 30.5 36.6 30.5 35.5C30.5 34.4 31.4 33.5 32.5 33.5C33.6 33.5 34.5 34.4 34.5 35.5C34.5 36.6 33.6 37.5 32.5 37.5ZM29.5 28.5V26.5C29.5 24.84 30.84 23.5 32.5 23.5C34.16 23.5 35.5 24.84 35.5 26.5V28.5H29.5Z" fill="#465DFF"/>
</svg>
