<svg width="65" height="65" viewBox="0 0 65 65" fill="none" xmlns="http://www.w3.org/2000/svg">
<rect width="65" height="65" rx="22" fill="#FFEAF1"/>
<path fill-rule="evenodd" clip-rule="evenodd" d="M37 32.5C38.38 32.5 39.49 31.38 39.49 30C39.49 28.62 38.38 27.5 37 27.5C35.62 27.5 34.5 28.62 34.5 30C34.5 31.38 35.62 32.5 37 32.5ZM29.5 31.5C31.16 31.5 32.49 30.16 32.49 28.5C32.49 26.84 31.16 25.5 29.5 25.5C27.84 25.5 26.5 26.84 26.5 28.5C26.5 30.16 27.84 31.5 29.5 31.5ZM37 34.5C35.17 34.5 31.5 35.42 31.5 37.25V38.5C31.5 39.05 31.95 39.5 32.5 39.5H41.5C42.05 39.5 42.5 39.05 42.5 38.5V37.25C42.5 35.42 38.83 34.5 37 34.5ZM29.5 33.5C27.17 33.5 22.5 34.67 22.5 37V38.5C22.5 39.05 22.95 39.5 23.5 39.5H29.5V37.25C29.5 36.4 29.83 34.91 31.87 33.78C31 33.6 30.16 33.5 29.5 33.5Z" fill="#111111"/>
</svg>
