<svg width="65" height="65" viewBox="0 0 65 65" fill="none" xmlns="http://www.w3.org/2000/svg">
<rect width="65" height="65" rx="22" fill="#FFEAF1"/>
<path fill-rule="evenodd" clip-rule="evenodd" d="M32.5 32.5C30.2909 32.5 28.5 30.7091 28.5 28.5C28.5 26.2909 30.2909 24.5 32.5 24.5C34.7091 24.5 36.5 26.2909 36.5 28.5C36.5 30.7091 34.7091 32.5 32.5 32.5ZM32.5 34.5C35.17 34.5 40.5 35.84 40.5 38.5V39.5C40.5 40.05 40.05 40.5 39.5 40.5H25.5C24.95 40.5 24.5 40.05 24.5 39.5V38.5C24.5 35.84 29.83 34.5 32.5 34.5Z" fill="#111111"/>
</svg>
